<svg xmlns="http://www.w3.org/2000/svg" xmlns:xlink="http://www.w3.org/1999/xlink" width="500" zoomAndPan="magnify" viewBox="0 0 375 374.999991" height="500" preserveAspectRatio="xMidYMid meet" version="1.0"><defs><g/><clipPath id="8666c3e6a4"><path d="M 275.777344 161.433594 L 301.277344 161.433594 L 301.277344 186.933594 L 275.777344 186.933594 Z M 275.777344 161.433594 " clip-rule="nonzero"/></clipPath><clipPath id="c896e2f5ae"><path d="M 273.546875 159.273438 L 303.546875 159.273438 L 303.546875 189.273438 L 273.546875 189.273438 Z M 273.546875 159.273438 " clip-rule="nonzero"/></clipPath><clipPath id="0968c0c8ee"><path d="M 282 156 L 303 156 L 303 179 L 282 179 Z M 282 156 " clip-rule="nonzero"/></clipPath><clipPath id="a2b94f1d8f"><path d="M 288.339844 153.1875 L 303.390625 157.828125 L 296.097656 181.480469 L 281.046875 176.835938 Z M 288.339844 153.1875 " clip-rule="nonzero"/></clipPath><clipPath id="55cbbde460"><path d="M 288.339844 153.1875 L 303.390625 157.828125 L 296.097656 181.480469 L 281.046875 176.835938 Z M 288.339844 153.1875 " clip-rule="nonzero"/></clipPath><clipPath id="8bfed77064"><path d="M 284 171 L 287 171 L 287 177 L 284 177 Z M 284 171 " clip-rule="nonzero"/></clipPath><clipPath id="05e2ee5cab"><path d="M 288.339844 153.1875 L 303.390625 157.828125 L 296.097656 181.480469 L 281.046875 176.835938 Z M 288.339844 153.1875 " clip-rule="nonzero"/></clipPath><clipPath id="39c790a460"><path d="M 288.339844 153.1875 L 303.390625 157.828125 L 296.097656 181.480469 L 281.046875 176.835938 Z M 288.339844 153.1875 " clip-rule="nonzero"/></clipPath></defs><g fill="#790016" fill-opacity="1"><g transform="translate(103.292742, 188.4934)"><g><path d="M 17 -4.40625 C 16.132812 -3.425781 15.253906 -2.65625 14.359375 -2.09375 C 13.460938 -1.53125 12.46875 -1.25 11.375 -1.25 C 11.144531 -1.25 10.828125 -1.28125 10.421875 -1.34375 L 9.5625 -1.296875 C 5.925781 -1.265625 3.269531 -2.992188 1.59375 -6.484375 C 1.21875 -7.296875 1.03125 -8.265625 1.03125 -9.390625 C 1.03125 -10.367188 1.175781 -11.300781 1.46875 -12.1875 C 1.757812 -13.082031 2.164062 -13.820312 2.6875 -14.40625 L 3.5 -15.390625 C 3.90625 -15.910156 4.222656 -16.273438 4.453125 -16.484375 C 5.460938 -17.460938 6.804688 -17.953125 8.484375 -17.953125 C 9.347656 -17.953125 10.195312 -17.804688 11.03125 -17.515625 C 11.863281 -17.222656 12.597656 -16.832031 13.234375 -16.34375 C 13.347656 -16.257812 13.460938 -16.078125 13.578125 -15.796875 C 13.691406 -15.523438 13.75 -15.304688 13.75 -15.140625 C 13.75 -14.910156 13.578125 -14.65625 13.234375 -14.375 C 12.890625 -14.101562 12.570312 -13.984375 12.28125 -14.015625 C 10.320312 -14.242188 8.75 -13.773438 7.5625 -12.609375 C 6.382812 -11.441406 5.796875 -9.847656 5.796875 -7.828125 C 5.796875 -6.503906 6.078125 -5.566406 6.640625 -5.015625 C 7.203125 -4.460938 8.128906 -4.1875 9.421875 -4.1875 C 10.234375 -4.1875 11 -4.351562 11.71875 -4.6875 C 12.4375 -5.019531 13.273438 -5.488281 14.234375 -6.09375 L 15.046875 -6.625 C 15.335938 -6.757812 15.71875 -6.847656 16.1875 -6.890625 C 16.664062 -6.941406 17.035156 -6.976562 17.296875 -7 C 17.265625 -6.75 17.253906 -6.5 17.265625 -6.25 C 17.285156 -6 17.296875 -5.804688 17.296875 -5.671875 C 17.296875 -5.035156 17.195312 -4.613281 17 -4.40625 Z M 17 -4.40625 "/></g></g></g><g fill="#790016" fill-opacity="1"><g transform="translate(119.032627, 188.4934)"><g><path d="M 7.046875 -23.09375 C 7.078125 -20.300781 7.15625 -18.003906 7.28125 -16.203125 C 7.414062 -14.398438 7.726562 -12.488281 8.21875 -10.46875 C 9.425781 -10.894531 10.535156 -11.109375 11.546875 -11.109375 C 13.242188 -11.109375 14.710938 -10.601562 15.953125 -9.59375 C 17.191406 -8.59375 18.03125 -7.34375 18.46875 -5.84375 C 18.8125 -4.738281 18.984375 -3.265625 18.984375 -1.421875 L 18.9375 1.953125 C 18.9375 2.148438 18.820312 2.378906 18.59375 2.640625 C 18.363281 2.898438 18.132812 3.054688 17.90625 3.109375 C 17.820312 3.140625 17.691406 3.15625 17.515625 3.15625 C 16.847656 3.15625 16.15625 2.832031 15.4375 2.1875 C 14.71875 1.539062 14.34375 0.898438 14.3125 0.265625 L 14.234375 -1.984375 C 14.234375 -2.503906 14.203125 -3.253906 14.140625 -4.234375 C 14.085938 -5.242188 13.972656 -5.96875 13.796875 -6.40625 C 13.617188 -6.894531 13.398438 -7.269531 13.140625 -7.53125 C 12.890625 -7.789062 12.601562 -7.921875 12.28125 -7.921875 C 12.050781 -7.921875 11.796875 -7.816406 11.515625 -7.609375 C 11.242188 -7.410156 11.007812 -7.140625 10.8125 -6.796875 C 10.207031 -5.835938 9.414062 -3.960938 8.4375 -1.171875 C 8.113281 -0.160156 7.550781 0.34375 6.75 0.34375 C 6.664062 0.34375 6.476562 0.316406 6.1875 0.265625 C 6.007812 0.203125 5.675781 0.109375 5.1875 -0.015625 C 4.695312 -0.148438 4.316406 -0.359375 4.046875 -0.640625 C 3.773438 -0.929688 3.640625 -1.351562 3.640625 -1.90625 C 3.640625 -7.351562 3.304688 -11.863281 2.640625 -15.4375 C 2.316406 -17.226562 2.15625 -19.289062 2.15625 -21.625 L 2.15625 -26.03125 C 2.15625 -26.4375 2.367188 -26.78125 2.796875 -27.0625 C 3.234375 -27.351562 3.726562 -27.5 4.28125 -27.5 C 4.738281 -27.5 5.128906 -27.398438 5.453125 -27.203125 C 6.023438 -26.859375 6.429688 -26.425781 6.671875 -25.90625 C 6.921875 -25.382812 7.046875 -24.734375 7.046875 -23.953125 Z M 7.046875 -23.09375 "/></g></g></g><g fill="#790016" fill-opacity="1"><g transform="translate(136.848138, 188.4934)"><g><path d="M 10.03125 -6.75 C 9.738281 -6.570312 9.320312 -6.484375 8.78125 -6.484375 C 8.582031 -6.484375 8.335938 -6.5 8.046875 -6.53125 C 7.753906 -6.5625 7.507812 -6.5625 7.3125 -6.53125 C 7.539062 -5.582031 8.085938 -4.8125 8.953125 -4.21875 C 9.816406 -3.625 10.78125 -3.328125 11.84375 -3.328125 C 12.769531 -3.328125 13.59375 -3.53125 14.3125 -3.9375 C 15.382812 -4.476562 16.304688 -5.125 17.078125 -5.875 C 17.628906 -6.425781 18.148438 -6.703125 18.640625 -6.703125 C 18.953125 -6.703125 19.226562 -6.546875 19.46875 -6.234375 C 19.695312 -5.859375 19.8125 -5.394531 19.8125 -4.84375 C 19.8125 -4.269531 19.695312 -3.820312 19.46875 -3.5 C 18.71875 -2.34375 17.742188 -1.546875 16.546875 -1.109375 C 15.347656 -0.679688 13.957031 -0.46875 12.375 -0.46875 C 10.726562 -0.46875 9.140625 -0.828125 7.609375 -1.546875 C 6.078125 -2.273438 4.769531 -3.265625 3.6875 -4.515625 C 2.613281 -5.773438 1.90625 -7.164062 1.5625 -8.6875 C 1.332031 -9.582031 1.21875 -10.460938 1.21875 -11.328125 C 1.21875 -12.679688 1.597656 -13.773438 2.359375 -14.609375 C 3.117188 -15.453125 4.351562 -16.25 6.0625 -17 C 7.613281 -17.65625 9.050781 -17.984375 10.375 -17.984375 C 11.332031 -17.984375 12.253906 -17.84375 13.140625 -17.5625 C 15.910156 -16.695312 17.296875 -15.515625 17.296875 -14.015625 C 17.296875 -13.054688 16.734375 -11.898438 15.609375 -10.546875 C 15.066406 -9.910156 14.421875 -9.347656 13.671875 -8.859375 C 12.921875 -8.367188 12.191406 -7.929688 11.484375 -7.546875 C 10.773438 -7.160156 10.289062 -6.894531 10.03125 -6.75 Z M 11.84375 -14.75 C 11.820312 -14.894531 11.71875 -15.015625 11.53125 -15.109375 C 11.34375 -15.210938 11.234375 -15.28125 11.203125 -15.3125 C 10.421875 -15.363281 9.625 -15.140625 8.8125 -14.640625 C 8.007812 -14.140625 7.34375 -13.5 6.8125 -12.71875 C 6.28125 -11.9375 6.015625 -11.1875 6.015625 -10.46875 L 6.0625 -10.125 C 6.082031 -10.007812 6.226562 -9.863281 6.5 -9.6875 C 6.78125 -9.507812 6.945312 -9.453125 7 -9.515625 C 9.050781 -11.046875 10.597656 -12.269531 11.640625 -13.1875 C 11.804688 -13.363281 11.890625 -13.679688 11.890625 -14.140625 C 11.890625 -14.429688 11.875 -14.632812 11.84375 -14.75 Z M 11.84375 -14.75 "/></g></g></g><g fill="#790016" fill-opacity="1"><g transform="translate(153.7988, 188.4934)"><g><path d="M 7.875 -18.34375 C 7.957031 -18.050781 7.972656 -17.601562 7.921875 -17 L 7.390625 -11.890625 C 7.535156 -12.003906 7.753906 -12.414062 8.046875 -13.125 C 8.335938 -13.832031 8.609375 -14.410156 8.859375 -14.859375 C 9.117188 -15.304688 9.320312 -15.601562 9.46875 -15.75 C 10.820312 -17.039062 12.347656 -17.816406 14.046875 -18.078125 C 15.753906 -18.335938 17.628906 -18.453125 19.671875 -18.421875 C 19.878906 -18.421875 20.101562 -18.34375 20.34375 -18.1875 C 20.59375 -18.03125 20.71875 -17.898438 20.71875 -17.796875 C 20.71875 -17.691406 20.628906 -17.53125 20.453125 -17.3125 C 20.285156 -17.101562 20.128906 -16.96875 19.984375 -16.90625 C 18.253906 -16.332031 16.734375 -15.671875 15.421875 -14.921875 C 14.109375 -14.171875 12.976562 -13.191406 12.03125 -11.984375 C 9.78125 -9.128906 8.476562 -6.1875 8.125 -3.15625 C 8.039062 -2.351562 7.796875 -1.8125 7.390625 -1.53125 C 6.992188 -1.257812 6.429688 -1.125 5.703125 -1.125 C 4.898438 -1.125 4.179688 -1.46875 3.546875 -2.15625 C 2.910156 -2.851562 2.59375 -3.617188 2.59375 -4.453125 C 2.625 -7.515625 2.640625 -12.097656 2.640625 -18.203125 C 2.640625 -19.046875 2.828125 -19.628906 3.203125 -19.953125 C 3.578125 -20.285156 4.253906 -20.453125 5.234375 -20.453125 C 5.953125 -20.453125 6.5625 -20.25 7.0625 -19.84375 C 7.570312 -19.445312 7.84375 -18.945312 7.875 -18.34375 Z M 7.875 -18.34375 "/></g></g></g><g fill="#790016" fill-opacity="1"><g transform="translate(170.835939, 188.4934)"><g><path d="M 12.578125 -3.453125 C 11.710938 -2.535156 10.78125 -2.078125 9.78125 -2.078125 C 8.9375 -2.078125 8.054688 -2.347656 7.140625 -2.890625 L 7 1.03125 C 6.863281 3.914062 6.796875 6.425781 6.796875 8.5625 C 6.796875 8.96875 6.820312 9.601562 6.875 10.46875 C 6.9375 11.332031 6.96875 11.96875 6.96875 12.375 C 6.96875 12.800781 6.953125 13.117188 6.921875 13.328125 C 6.890625 13.578125 6.710938 13.851562 6.390625 14.15625 C 6.078125 14.46875 5.765625 14.664062 5.453125 14.75 C 5.222656 14.800781 5.0625 14.828125 4.96875 14.828125 C 4.3125 14.828125 3.671875 14.539062 3.046875 13.96875 C 2.429688 13.394531 2.132812 12.789062 2.15625 12.15625 C 2.21875 9.988281 2.335938 6.859375 2.515625 2.765625 L 2.8125 -6.65625 C 2.863281 -8.382812 2.765625 -9.84375 2.515625 -11.03125 C 2.453125 -11.375 2.421875 -11.601562 2.421875 -11.71875 C 2.421875 -12.175781 2.554688 -12.535156 2.828125 -12.796875 C 3.109375 -13.054688 3.476562 -13.21875 3.9375 -13.28125 C 4.65625 -13.332031 5.226562 -13.523438 5.65625 -13.859375 C 6.09375 -14.191406 6.597656 -14.71875 7.171875 -15.4375 C 8.210938 -16.738281 9.351562 -17.390625 10.59375 -17.390625 C 11.976562 -17.390625 13.550781 -16.535156 15.3125 -14.828125 C 16.113281 -14.054688 16.515625 -13.003906 16.515625 -11.671875 C 16.515625 -11.179688 16.472656 -10.691406 16.390625 -10.203125 C 16.191406 -8.992188 15.765625 -7.867188 15.109375 -6.828125 C 14.460938 -5.796875 13.617188 -4.671875 12.578125 -3.453125 Z M 8.5625 -10.6875 C 7.925781 -8.957031 7.609375 -7.414062 7.609375 -6.0625 C 7.609375 -5.738281 7.625 -5.503906 7.65625 -5.359375 L 8.171875 -5.109375 C 8.753906 -5.273438 9.359375 -5.773438 9.984375 -6.609375 C 10.617188 -7.453125 11.144531 -8.398438 11.5625 -9.453125 C 11.988281 -10.503906 12.203125 -11.429688 12.203125 -12.234375 C 12.203125 -12.585938 12.128906 -12.9375 11.984375 -13.28125 C 11.773438 -13.65625 11.472656 -13.84375 11.078125 -13.84375 C 10.554688 -13.84375 10.179688 -13.65625 9.953125 -13.28125 C 9.859375 -13.164062 9.648438 -12.847656 9.328125 -12.328125 C 9.015625 -11.804688 8.757812 -11.257812 8.5625 -10.6875 Z M 8.5625 -10.6875 "/></g></g></g><g fill="#790016" fill-opacity="1"><g transform="translate(186.229877, 188.4934)"><g><path d="M 15.359375 -2.203125 C 15.097656 -2.316406 14.835938 -2.375 14.578125 -2.375 C 14.316406 -2.375 14.09375 -2.304688 13.90625 -2.171875 C 13.71875 -2.046875 13.507812 -1.851562 13.28125 -1.59375 C 12.9375 -1.25 12.578125 -0.960938 12.203125 -0.734375 C 11.847656 -0.535156 11.210938 -0.347656 10.296875 -0.171875 C 9.890625 -0.117188 9.554688 -0.09375 9.296875 -0.09375 C 8.085938 -0.09375 6.828125 -0.359375 5.515625 -0.890625 C 4.203125 -1.421875 3.269531 -2.0625 2.71875 -2.8125 C 2.144531 -3.613281 1.875 -4.476562 1.90625 -5.40625 C 1.9375 -6.789062 2.515625 -8.175781 3.640625 -9.5625 C 4.734375 -10.882812 5.734375 -11.816406 6.640625 -12.359375 C 7.546875 -12.910156 8.789062 -13.257812 10.375 -13.40625 C 10.726562 -13.40625 11.226562 -13.460938 11.875 -13.578125 C 12.519531 -13.691406 12.84375 -13.851562 12.84375 -14.0625 C 12.84375 -14.457031 12.660156 -14.820312 12.296875 -15.15625 C 11.941406 -15.488281 11.21875 -15.65625 10.125 -15.65625 C 9.71875 -15.65625 9.109375 -15.625 8.296875 -15.5625 C 7.492188 -15.507812 6.9375 -15.484375 6.625 -15.484375 C 5.632812 -15.484375 4.925781 -15.640625 4.5 -15.953125 C 4.382812 -16.015625 4.328125 -16.289062 4.328125 -16.78125 C 4.328125 -17.644531 4.628906 -18.191406 5.234375 -18.421875 C 6.472656 -18.878906 7.753906 -19.125 9.078125 -19.15625 C 10.753906 -19.15625 12.304688 -18.785156 13.734375 -18.046875 C 15.160156 -17.316406 16.207031 -16.40625 16.875 -15.3125 C 17.53125 -14.21875 17.960938 -12.703125 18.171875 -10.765625 C 18.398438 -8.609375 18.515625 -5.859375 18.515625 -2.515625 C 18.515625 -1.585938 18.382812 -1.050781 18.125 -0.90625 C 17.894531 -0.757812 17.675781 -0.6875 17.46875 -0.6875 C 17.207031 -0.6875 16.96875 -0.765625 16.75 -0.921875 C 16.539062 -1.085938 16.304688 -1.3125 16.046875 -1.59375 C 15.785156 -1.914062 15.554688 -2.117188 15.359375 -2.203125 Z M 8.515625 -2.71875 C 9.867188 -3.125 11.195312 -3.773438 12.5 -4.671875 C 12.789062 -4.867188 13.050781 -5.125 13.28125 -5.4375 C 13.507812 -5.757812 13.648438 -5.96875 13.703125 -6.0625 C 13.765625 -6.144531 13.816406 -6.394531 13.859375 -6.8125 C 13.898438 -7.226562 13.910156 -7.566406 13.890625 -7.828125 C 13.859375 -7.910156 13.804688 -8.140625 13.734375 -8.515625 C 13.660156 -8.890625 13.550781 -9.222656 13.40625 -9.515625 C 13.257812 -9.742188 13.023438 -9.957031 12.703125 -10.15625 C 12.390625 -10.363281 12.101562 -10.453125 11.84375 -10.421875 C 11.300781 -10.390625 10.710938 -10.1875 10.078125 -9.8125 C 9.441406 -9.4375 8.847656 -8.929688 8.296875 -8.296875 C 7.753906 -7.640625 7.332031 -6.972656 7.03125 -6.296875 C 6.726562 -5.617188 6.578125 -4.988281 6.578125 -4.40625 C 6.628906 -3.632812 6.84375 -3.117188 7.21875 -2.859375 C 7.425781 -2.710938 7.671875 -2.640625 7.953125 -2.640625 C 8.179688 -2.640625 8.367188 -2.664062 8.515625 -2.71875 Z M 8.515625 -2.71875 "/></g></g></g><g fill="#790016" fill-opacity="1"><g transform="translate(203.872408, 188.4934)"><g><path d="M 17 -4.40625 C 16.132812 -3.425781 15.253906 -2.65625 14.359375 -2.09375 C 13.460938 -1.53125 12.46875 -1.25 11.375 -1.25 C 11.144531 -1.25 10.828125 -1.28125 10.421875 -1.34375 L 9.5625 -1.296875 C 5.925781 -1.265625 3.269531 -2.992188 1.59375 -6.484375 C 1.21875 -7.296875 1.03125 -8.265625 1.03125 -9.390625 C 1.03125 -10.367188 1.175781 -11.300781 1.46875 -12.1875 C 1.757812 -13.082031 2.164062 -13.820312 2.6875 -14.40625 L 3.5 -15.390625 C 3.90625 -15.910156 4.222656 -16.273438 4.453125 -16.484375 C 5.460938 -17.460938 6.804688 -17.953125 8.484375 -17.953125 C 9.347656 -17.953125 10.195312 -17.804688 11.03125 -17.515625 C 11.863281 -17.222656 12.597656 -16.832031 13.234375 -16.34375 C 13.347656 -16.257812 13.460938 -16.078125 13.578125 -15.796875 C 13.691406 -15.523438 13.75 -15.304688 13.75 -15.140625 C 13.75 -14.910156 13.578125 -14.65625 13.234375 -14.375 C 12.890625 -14.101562 12.570312 -13.984375 12.28125 -14.015625 C 10.320312 -14.242188 8.75 -13.773438 7.5625 -12.609375 C 6.382812 -11.441406 5.796875 -9.847656 5.796875 -7.828125 C 5.796875 -6.503906 6.078125 -5.566406 6.640625 -5.015625 C 7.203125 -4.460938 8.128906 -4.1875 9.421875 -4.1875 C 10.234375 -4.1875 11 -4.351562 11.71875 -4.6875 C 12.4375 -5.019531 13.273438 -5.488281 14.234375 -6.09375 L 15.046875 -6.625 C 15.335938 -6.757812 15.71875 -6.847656 16.1875 -6.890625 C 16.664062 -6.941406 17.035156 -6.976562 17.296875 -7 C 17.265625 -6.75 17.253906 -6.5 17.265625 -6.25 C 17.285156 -6 17.296875 -5.804688 17.296875 -5.671875 C 17.296875 -5.035156 17.195312 -4.613281 17 -4.40625 Z M 17 -4.40625 "/></g></g></g><g fill="#790016" fill-opacity="1"><g transform="translate(219.612291, 188.4934)"><g><path d="M 7.046875 -23.09375 C 7.078125 -20.300781 7.15625 -18.003906 7.28125 -16.203125 C 7.414062 -14.398438 7.726562 -12.488281 8.21875 -10.46875 C 9.425781 -10.894531 10.535156 -11.109375 11.546875 -11.109375 C 13.242188 -11.109375 14.710938 -10.601562 15.953125 -9.59375 C 17.191406 -8.59375 18.03125 -7.34375 18.46875 -5.84375 C 18.8125 -4.738281 18.984375 -3.265625 18.984375 -1.421875 L 18.9375 1.953125 C 18.9375 2.148438 18.820312 2.378906 18.59375 2.640625 C 18.363281 2.898438 18.132812 3.054688 17.90625 3.109375 C 17.820312 3.140625 17.691406 3.15625 17.515625 3.15625 C 16.847656 3.15625 16.15625 2.832031 15.4375 2.1875 C 14.71875 1.539062 14.34375 0.898438 14.3125 0.265625 L 14.234375 -1.984375 C 14.234375 -2.503906 14.203125 -3.253906 14.140625 -4.234375 C 14.085938 -5.242188 13.972656 -5.96875 13.796875 -6.40625 C 13.617188 -6.894531 13.398438 -7.269531 13.140625 -7.53125 C 12.890625 -7.789062 12.601562 -7.921875 12.28125 -7.921875 C 12.050781 -7.921875 11.796875 -7.816406 11.515625 -7.609375 C 11.242188 -7.410156 11.007812 -7.140625 10.8125 -6.796875 C 10.207031 -5.835938 9.414062 -3.960938 8.4375 -1.171875 C 8.113281 -0.160156 7.550781 0.34375 6.75 0.34375 C 6.664062 0.34375 6.476562 0.316406 6.1875 0.265625 C 6.007812 0.203125 5.675781 0.109375 5.1875 -0.015625 C 4.695312 -0.148438 4.316406 -0.359375 4.046875 -0.640625 C 3.773438 -0.929688 3.640625 -1.351562 3.640625 -1.90625 C 3.640625 -7.351562 3.304688 -11.863281 2.640625 -15.4375 C 2.316406 -17.226562 2.15625 -19.289062 2.15625 -21.625 L 2.15625 -26.03125 C 2.15625 -26.4375 2.367188 -26.78125 2.796875 -27.0625 C 3.234375 -27.351562 3.726562 -27.5 4.28125 -27.5 C 4.738281 -27.5 5.128906 -27.398438 5.453125 -27.203125 C 6.023438 -26.859375 6.429688 -26.425781 6.671875 -25.90625 C 6.921875 -25.382812 7.046875 -24.734375 7.046875 -23.953125 Z M 7.046875 -23.09375 "/></g></g></g><g fill="#790016" fill-opacity="1"><g transform="translate(237.427799, 188.4934)"><g><path d="M 10.03125 -6.75 C 9.738281 -6.570312 9.320312 -6.484375 8.78125 -6.484375 C 8.582031 -6.484375 8.335938 -6.5 8.046875 -6.53125 C 7.753906 -6.5625 7.507812 -6.5625 7.3125 -6.53125 C 7.539062 -5.582031 8.085938 -4.8125 8.953125 -4.21875 C 9.816406 -3.625 10.78125 -3.328125 11.84375 -3.328125 C 12.769531 -3.328125 13.59375 -3.53125 14.3125 -3.9375 C 15.382812 -4.476562 16.304688 -5.125 17.078125 -5.875 C 17.628906 -6.425781 18.148438 -6.703125 18.640625 -6.703125 C 18.953125 -6.703125 19.226562 -6.546875 19.46875 -6.234375 C 19.695312 -5.859375 19.8125 -5.394531 19.8125 -4.84375 C 19.8125 -4.269531 19.695312 -3.820312 19.46875 -3.5 C 18.71875 -2.34375 17.742188 -1.546875 16.546875 -1.109375 C 15.347656 -0.679688 13.957031 -0.46875 12.375 -0.46875 C 10.726562 -0.46875 9.140625 -0.828125 7.609375 -1.546875 C 6.078125 -2.273438 4.769531 -3.265625 3.6875 -4.515625 C 2.613281 -5.773438 1.90625 -7.164062 1.5625 -8.6875 C 1.332031 -9.582031 1.21875 -10.460938 1.21875 -11.328125 C 1.21875 -12.679688 1.597656 -13.773438 2.359375 -14.609375 C 3.117188 -15.453125 4.351562 -16.25 6.0625 -17 C 7.613281 -17.65625 9.050781 -17.984375 10.375 -17.984375 C 11.332031 -17.984375 12.253906 -17.84375 13.140625 -17.5625 C 15.910156 -16.695312 17.296875 -15.515625 17.296875 -14.015625 C 17.296875 -13.054688 16.734375 -11.898438 15.609375 -10.546875 C 15.066406 -9.910156 14.421875 -9.347656 13.671875 -8.859375 C 12.921875 -8.367188 12.191406 -7.929688 11.484375 -7.546875 C 10.773438 -7.160156 10.289062 -6.894531 10.03125 -6.75 Z M 11.84375 -14.75 C 11.820312 -14.894531 11.71875 -15.015625 11.53125 -15.109375 C 11.34375 -15.210938 11.234375 -15.28125 11.203125 -15.3125 C 10.421875 -15.363281 9.625 -15.140625 8.8125 -14.640625 C 8.007812 -14.140625 7.34375 -13.5 6.8125 -12.71875 C 6.28125 -11.9375 6.015625 -11.1875 6.015625 -10.46875 L 6.0625 -10.125 C 6.082031 -10.007812 6.226562 -9.863281 6.5 -9.6875 C 6.78125 -9.507812 6.945312 -9.453125 7 -9.515625 C 9.050781 -11.046875 10.597656 -12.269531 11.640625 -13.1875 C 11.804688 -13.363281 11.890625 -13.679688 11.890625 -14.140625 C 11.890625 -14.429688 11.875 -14.632812 11.84375 -14.75 Z M 11.84375 -14.75 "/></g></g></g><g fill="#790016" fill-opacity="1"><g transform="translate(254.378455, 188.4934)"><g><path d="M 1.46875 -16.125 C 1.269531 -16.363281 1.132812 -16.609375 1.0625 -16.859375 C 0.988281 -17.117188 0.921875 -17.484375 0.859375 -17.953125 C 1.117188 -18.554688 1.597656 -18.859375 2.296875 -18.859375 C 2.640625 -18.796875 2.882812 -18.765625 3.03125 -18.765625 C 3.601562 -18.765625 3.960938 -18.9375 4.109375 -19.28125 C 4.253906 -19.632812 4.328125 -20.039062 4.328125 -20.5 C 4.328125 -20.957031 4.328125 -21.316406 4.328125 -21.578125 L 4.453125 -24.171875 C 4.484375 -24.753906 4.519531 -25.46875 4.5625 -26.3125 C 4.601562 -27.164062 4.65625 -28.15625 4.71875 -29.28125 C 4.738281 -29.882812 4.882812 -30.328125 5.15625 -30.609375 C 5.4375 -30.898438 5.820312 -31.046875 6.3125 -31.046875 C 6.65625 -31.046875 6.929688 -31.019531 7.140625 -30.96875 C 8.316406 -30.707031 9.109375 -30.332031 9.515625 -29.84375 C 9.921875 -29.351562 10.195312 -28.617188 10.34375 -27.640625 C 10.363281 -27.429688 10.332031 -27.007812 10.25 -26.375 L 9.46875 -19.640625 C 9.4375 -19.460938 9.390625 -19.25 9.328125 -19 C 9.273438 -18.757812 9.25 -18.582031 9.25 -18.46875 C 9.25 -18.207031 9.394531 -18.03125 9.6875 -17.9375 C 9.976562 -17.851562 10.507812 -17.828125 11.28125 -17.859375 C 12.613281 -18.148438 13.625 -18.335938 14.3125 -18.421875 C 14.457031 -18.453125 14.6875 -18.46875 15 -18.46875 C 15.351562 -18.46875 15.585938 -18.425781 15.703125 -18.34375 C 15.816406 -18.28125 15.910156 -18.113281 15.984375 -17.84375 C 16.054688 -17.570312 16.09375 -17.257812 16.09375 -16.90625 C 16.09375 -16.59375 16.054688 -16.304688 15.984375 -16.046875 C 15.910156 -15.785156 15.816406 -15.640625 15.703125 -15.609375 C 14.921875 -15.378906 14 -15.191406 12.9375 -15.046875 C 11.664062 -14.816406 10.726562 -14.617188 10.125 -14.453125 C 9.800781 -14.359375 9.476562 -14.140625 9.15625 -13.796875 C 8.84375 -13.453125 8.675781 -13.132812 8.65625 -12.84375 C 8.59375 -11.425781 8.546875 -9.984375 8.515625 -8.515625 C 8.492188 -7.390625 8.539062 -6.265625 8.65625 -5.140625 C 8.738281 -4.191406 8.921875 -3.507812 9.203125 -3.09375 C 9.492188 -2.675781 9.929688 -2.46875 10.515625 -2.46875 C 10.972656 -2.46875 11.632812 -2.625 12.5 -2.9375 C 12.957031 -3.144531 13.359375 -3.25 13.703125 -3.25 C 14.253906 -3.25 14.644531 -2.941406 14.875 -2.328125 C 14.957031 -2.128906 15 -1.929688 15 -1.734375 C 15 -1.359375 14.863281 -1.050781 14.59375 -0.8125 C 14.320312 -0.582031 13.957031 -0.382812 13.5 -0.21875 C 12.632812 0.101562 11.753906 0.273438 10.859375 0.296875 C 9.648438 0.296875 8.507812 0.00390625 7.4375 -0.578125 C 6.375 -1.171875 5.53125 -2 4.90625 -3.0625 C 4.289062 -4.132812 4.023438 -5.363281 4.109375 -6.75 C 4.140625 -7.289062 4.15625 -8.15625 4.15625 -9.34375 C 4.15625 -11.21875 4.082031 -13.117188 3.9375 -15.046875 C 3.90625 -15.222656 3.800781 -15.347656 3.625 -15.421875 C 3.457031 -15.492188 3.171875 -15.570312 2.765625 -15.65625 C 2.097656 -15.769531 1.664062 -15.925781 1.46875 -16.125 Z M 1.46875 -16.125 "/></g></g></g><g clip-path="url(#8666c3e6a4)"><path fill="#ffbe58" d="M 288.914062 161.628906 L 287.617188 161.738281 L 287.839844 161.753906 L 288.914062 161.628906 M 290.417969 163.023438 L 290.339844 163.03125 L 290.359375 163.035156 L 290.417969 163.023438 M 290.0625 163.050781 L 289.222656 163.105469 L 289.539062 163.148438 L 290.125 163.066406 L 290.0625 163.050781 M 288.042969 163.351562 L 288.066406 163.355469 L 287.976562 163.367188 L 288.042969 163.351562 M 287.015625 163.171875 L 286.625 163.289062 L 286.234375 163.410156 L 286.460938 163.246094 L 287.015625 163.171875 M 287.21875 163.570312 L 287.191406 163.570312 L 287.097656 163.601562 C 287.136719 163.589844 287.179688 163.582031 287.21875 163.570312 M 289.328125 163.519531 L 290.1875 163.628906 L 290.226562 163.671875 L 289.328125 163.53125 L 288.425781 163.617188 L 287.515625 163.5625 L 289.328125 163.519531 M 291.210938 163.773438 L 291.234375 163.78125 L 291.230469 163.78125 C 291.222656 163.78125 291.214844 163.777344 291.210938 163.773438 M 288.550781 161.453125 L 291.023438 162.035156 L 292.328125 162.222656 L 293.84375 162.917969 L 295.664062 163.851562 L 293.417969 162.492188 L 292.742188 162.210938 L 290.5625 161.550781 L 288.550781 161.453125 M 291.328125 163.824219 L 291.417969 163.847656 L 291.460938 163.863281 L 291.382812 163.851562 L 291.328125 163.824219 M 290.359375 163.035156 L 290.125 163.066406 L 293.242188 163.914062 L 293.117188 163.84375 L 291.363281 163.234375 L 290.359375 163.035156 M 287.949219 163.339844 L 288.039062 163.351562 L 287.972656 163.367188 L 287.859375 163.382812 L 286.492188 163.730469 L 287.949219 163.375 L 287.21875 163.570312 L 287.445312 163.5625 L 286.6875 163.777344 L 286.550781 163.792969 L 286.4375 163.84375 L 286.355469 163.851562 L 287.097656 163.601562 L 286.230469 163.832031 L 286.183594 163.867188 L 285.5625 163.921875 L 285.710938 163.855469 L 287.949219 163.339844 M 286.074219 163.945312 L 286.066406 163.949219 L 286.0625 163.957031 C 286.027344 163.964844 285.996094 163.972656 285.964844 163.984375 C 286 163.972656 286.039062 163.957031 286.074219 163.945312 M 293.242188 163.914062 L 293.3125 163.949219 L 293.378906 163.988281 L 293.402344 163.957031 L 293.242188 163.914062 M 288.710938 162.042969 L 285.996094 162.777344 L 283.660156 163.871094 L 283.488281 163.992188 L 283.726562 163.898438 L 283.835938 163.820312 L 286.246094 162.730469 L 288.683594 162.097656 L 288.710938 162.042969 M 284.855469 163 L 284.1875 163.078125 L 282.351562 164.058594 L 284.457031 163.089844 L 282.714844 163.976562 L 284.855469 163 M 284.304688 163.871094 L 284.203125 163.976562 L 284.105469 164.078125 L 283.632812 164.230469 C 283.859375 164.113281 284.082031 163.992188 284.304688 163.871094 M 285.339844 164.195312 L 284.910156 164.375 L 285 164.308594 L 285.339844 164.195312 M 292.867188 164.359375 L 292.917969 164.386719 L 292.972656 164.414062 C 293.003906 164.421875 293.039062 164.425781 293.070312 164.433594 C 293 164.40625 292.933594 164.382812 292.867188 164.359375 M 293.722656 164.535156 L 294.160156 164.632812 L 293.765625 164.558594 L 293.722656 164.535156 M 284.398438 164.746094 L 284.363281 164.769531 L 284.332031 164.796875 C 284.367188 164.78125 284.402344 164.765625 284.433594 164.75 C 284.421875 164.75 284.410156 164.746094 284.398438 164.746094 M 292.21875 164.203125 L 292.773438 164.328125 L 292.867188 164.359375 L 292.824219 164.339844 L 293.203125 164.421875 L 293.273438 164.46875 L 293.070312 164.433594 L 293.375 164.539062 L 293.800781 164.832031 L 293.539062 164.699219 L 293.359375 164.574219 L 293.4375 164.648438 L 292.972656 164.414062 L 292.324219 164.296875 L 292.140625 164.207031 L 292.21875 164.203125 M 296.636719 164.894531 L 296.640625 164.894531 L 296.640625 164.898438 L 296.640625 164.894531 L 296.636719 164.894531 M 295.917969 164.796875 L 295.894531 164.796875 L 295.875 164.800781 L 296.160156 165.027344 C 296.082031 164.949219 296 164.871094 295.917969 164.796875 M 295.714844 164.816406 L 295.996094 165.074219 C 295.890625 164.988281 295.785156 164.902344 295.679688 164.820312 L 295.714844 164.816406 M 285.890625 164.082031 L 285.855469 164.105469 L 284.433594 164.75 L 284.835938 164.757812 L 284.792969 164.867188 L 284.007812 165.03125 L 284.332031 164.796875 L 283.953125 164.964844 L 283.847656 165.066406 L 283.839844 165.066406 L 283.785156 165.09375 L 284.222656 164.742188 L 284.398438 164.746094 L 284.84375 164.421875 L 285.890625 164.082031 M 283.023438 164.398438 L 282.882812 164.464844 L 282.738281 164.527344 C 282.4375 164.742188 282.136719 164.960938 281.835938 165.175781 L 282.410156 164.839844 L 283.023438 164.398438 M 281.835938 165.175781 L 281.53125 165.351562 L 281.453125 165.433594 L 281.457031 165.480469 L 281.585938 165.355469 L 281.835938 165.175781 M 294.753906 163.835938 L 296.875 165.542969 L 296.886719 165.546875 L 295.9375 164.453125 L 294.753906 163.835938 M 283.46875 165.421875 L 283.34375 165.539062 L 283.21875 165.660156 C 283.191406 165.671875 283.164062 165.683594 283.136719 165.699219 L 283.222656 165.601562 L 283.46875 165.421875 M 281.457031 165.480469 L 281.28125 165.652344 L 281.101562 165.828125 C 281.222656 165.753906 281.347656 165.679688 281.46875 165.605469 C 281.464844 165.566406 281.460938 165.523438 281.457031 165.480469 M 281.675781 165.203125 L 281.136719 165.617188 L 280.832031 165.992188 L 281.015625 165.878906 L 281.453125 165.433594 L 281.449219 165.398438 L 281.53125 165.351562 L 281.675781 165.203125 M 282.175781 165.75 L 281.988281 165.929688 L 281.800781 166.105469 L 282.007812 165.867188 L 282.175781 165.75 M 296.640625 164.898438 L 297.429688 165.769531 L 298.214844 166.644531 C 297.972656 166.285156 297.726562 165.921875 297.484375 165.558594 L 296.640625 164.898438 M 293.652344 166.535156 L 293.699219 166.558594 L 293.75 166.585938 L 293.917969 166.765625 L 293.839844 166.714844 L 293.652344 166.535156 M 281.664062 164.367188 L 280.921875 164.847656 L 279.21875 166.824219 L 280.582031 165.285156 L 281.824219 164.476562 L 281.664062 164.367188 M 295.933594 166.921875 L 295.972656 166.953125 L 296.007812 166.980469 L 295.941406 166.933594 L 295.933594 166.921875 M 297.878906 166.6875 L 298.332031 167.304688 L 298.253906 167.121094 L 297.878906 166.6875 M 296.742188 166.1875 L 296.8125 166.441406 L 296.808594 166.453125 L 296.75 166.390625 L 297.039062 167.074219 L 297.296875 167.308594 L 296.742188 166.1875 M 280.835938 167.363281 L 280.8125 167.40625 L 280.808594 167.410156 L 280.835938 167.363281 M 294.140625 166.128906 L 294.828125 166.714844 L 295.511719 167.300781 L 295.589844 167.425781 L 294.453125 166.476562 L 294.140625 166.128906 M 296.53125 165.835938 L 296.941406 166.433594 L 297.347656 167.027344 L 297.632812 167.4375 C 297.5 167.121094 297.367188 166.800781 297.230469 166.480469 L 296.53125 165.835938 M 297.523438 166.800781 L 297.992188 167.496094 L 297.820312 167.207031 L 297.523438 166.800781 M 297.3125 167.660156 L 297.316406 167.660156 C 297.320312 167.664062 297.324219 167.667969 297.324219 167.671875 L 297.3125 167.660156 M 295.671875 167.722656 L 295.679688 167.730469 L 295.683594 167.742188 L 295.675781 167.722656 L 295.671875 167.722656 M 282.570312 167.054688 L 282.527344 167.074219 L 282.484375 167.097656 C 282.21875 167.332031 281.957031 167.566406 281.691406 167.796875 C 281.929688 167.621094 282.167969 167.441406 282.40625 167.265625 L 282.570312 167.054688 M 289.507812 168.3125 L 289.464844 168.320312 L 289.425781 168.328125 L 289.441406 168.316406 C 289.460938 168.316406 289.484375 168.3125 289.507812 168.3125 M 290.40625 168.277344 L 290.226562 168.355469 L 290.050781 168.292969 L 290.40625 168.277344 M 287.96875 168.433594 L 287.617188 168.625 L 287.34375 168.671875 L 287.457031 168.519531 L 287.96875 168.433594 M 299.824219 166.921875 L 300.171875 167.910156 L 300.523438 168.898438 C 300.488281 168.753906 300.457031 168.609375 300.425781 168.460938 L 299.824219 166.921875 M 296.925781 164.824219 L 298.152344 166.269531 L 298.871094 167.640625 L 299.339844 168.671875 L 299.515625 168.910156 L 299.523438 168.933594 L 299.421875 168.367188 L 298.394531 166.546875 L 296.925781 164.824219 M 286.828125 168.921875 L 286.710938 169.070312 L 286.707031 169.074219 L 286.484375 169.28125 L 286.828125 168.921875 M 282.746094 166.828125 L 282.570312 167.054688 L 282.929688 166.871094 L 282.40625 167.265625 L 282.136719 167.609375 L 281.960938 168.007812 L 281.039062 169.160156 L 280.679688 169.824219 L 280.789062 169.484375 L 281.917969 167.867188 L 280.660156 169.558594 L 281.550781 167.976562 L 282.214844 167.132812 L 282.746094 166.828125 M 298.984375 168.921875 L 299.023438 169.097656 L 299.402344 170.160156 L 299.28125 169.5625 L 299.035156 168.976562 L 298.984375 168.921875 M 295.4375 167.335938 L 295.660156 167.539062 L 296.582031 169.042969 L 296.730469 169.460938 L 295.683594 167.742188 L 296.941406 170.0625 L 297.007812 170.253906 L 296.441406 169.457031 L 295.65625 167.777344 L 295.421875 167.550781 L 295.671875 167.722656 L 295.4375 167.335938 M 299.402344 170.160156 L 299.40625 170.199219 L 299.414062 170.238281 L 299.492188 170.421875 C 299.460938 170.335938 299.429688 170.25 299.402344 170.160156 M 299.113281 169.523438 L 299.171875 169.789062 L 299.226562 170.054688 L 299.472656 170.519531 C 299.453125 170.425781 299.433594 170.332031 299.414062 170.238281 L 299.113281 169.523438 M 280.617188 169.636719 L 280.507812 169.992188 L 280.394531 170.347656 C 280.355469 170.417969 280.316406 170.488281 280.277344 170.5625 L 280.421875 169.984375 L 280.617188 169.636719 M 279.402344 170.535156 L 279.394531 170.570312 L 279.386719 170.601562 L 279.359375 170.644531 L 279.402344 170.535156 M 299.492188 170.421875 L 299.585938 170.6875 C 299.582031 170.660156 299.574219 170.628906 299.566406 170.597656 L 299.492188 170.421875 M 299.644531 171.070312 L 299.640625 171.191406 L 299.636719 171.308594 L 299.664062 171.378906 C 299.65625 171.277344 299.652344 171.175781 299.644531 171.070312 M 285.292969 171.460938 L 285.285156 171.480469 L 285.28125 171.496094 C 285.28125 171.492188 285.28125 171.488281 285.28125 171.484375 C 285.285156 171.476562 285.289062 171.46875 285.292969 171.460938 M 285.582031 170.972656 L 285.347656 171.929688 L 285.316406 171.714844 L 285.539062 171.046875 L 285.582031 170.972656 M 285.324219 170.964844 L 285.035156 172.082031 L 285.207031 171.148438 L 285.324219 170.964844 M 299.664062 171.378906 L 299.6875 171.769531 L 299.875 172.226562 L 299.75 171.59375 L 299.664062 171.378906 M 297.183594 170.9375 L 297.269531 171.332031 L 297.351562 171.722656 C 297.328125 171.660156 297.304688 171.597656 297.28125 171.53125 L 297.363281 172.394531 C 297.304688 171.910156 297.246094 171.425781 297.183594 170.9375 M 297.351562 170.496094 L 297.570312 171.1875 L 297.789062 171.882812 L 297.878906 172.472656 L 297.480469 171.011719 L 297.351562 170.496094 M 299.621094 171.613281 L 299.609375 171.917969 L 299.605469 172.15625 L 299.738281 172.652344 L 299.6875 171.769531 L 299.621094 171.613281 M 276.832031 170.199219 L 276.824219 170.414062 L 276.816406 170.625 C 276.832031 170.753906 276.847656 170.886719 276.863281 171.015625 C 276.640625 171.644531 276.414062 172.277344 276.191406 172.90625 L 276.832031 170.199219 M 300.523438 168.898438 L 301.003906 171.042969 L 301.25 173.253906 L 301.074219 170.726562 L 300.863281 170.078125 L 300.832031 169.773438 L 300.523438 168.898438 M 288.519531 173.308594 L 288.515625 173.328125 L 288.515625 173.351562 C 288.515625 173.339844 288.515625 173.324219 288.519531 173.308594 M 297.585938 173.417969 L 297.589844 173.472656 L 297.597656 173.523438 L 297.585938 173.597656 L 297.570312 173.503906 L 297.585938 173.417969 M 289.4375 173.507812 L 289.382812 173.664062 L 289.324219 173.816406 L 289.320312 173.707031 C 289.359375 173.640625 289.398438 173.574219 289.4375 173.507812 M 297.546875 173.636719 L 297.554688 173.890625 L 297.546875 173.929688 C 297.539062 173.871094 297.535156 173.808594 297.527344 173.746094 L 297.546875 173.636719 M 300.515625 172.941406 L 300.527344 173.476562 L 300.542969 174.015625 L 300.582031 173.558594 C 300.558594 173.351562 300.535156 173.148438 300.515625 172.941406 M 297.992188 173.183594 L 298.117188 174.003906 C 298.113281 174.085938 298.105469 174.164062 298.097656 174.242188 L 297.992188 173.183594 M 289.484375 174.191406 L 289.414062 174.304688 L 289.347656 174.421875 L 289.34375 174.257812 C 289.390625 174.238281 289.4375 174.214844 289.484375 174.191406 M 294.113281 174.378906 L 294.117188 174.386719 L 294.117188 174.390625 L 294.09375 174.445312 C 294.101562 174.425781 294.109375 174.402344 294.113281 174.378906 M 297.492188 173.933594 L 297.535156 174.039062 L 297.480469 174.511719 C 297.472656 174.433594 297.464844 174.351562 297.457031 174.273438 C 297.457031 174.230469 297.453125 174.1875 297.453125 174.144531 L 297.492188 173.933594 M 297.652344 174.320312 L 297.683594 174.398438 L 297.6875 174.457031 L 297.644531 174.710938 L 297.628906 174.589844 L 297.65625 174.484375 C 297.65625 174.429688 297.652344 174.375 297.652344 174.320312 M 289.160156 174.203125 L 289.261719 174.269531 L 289.289062 174.527344 L 289.0625 174.914062 L 289.160156 174.203125 M 300.351562 174.269531 L 300.328125 174.425781 L 300.300781 174.582031 C 300.28125 174.835938 300.261719 175.085938 300.238281 175.339844 C 300.285156 175.191406 300.332031 175.046875 300.378906 174.898438 L 300.351562 174.269531 M 297.191406 175.484375 L 297.191406 175.488281 C 297.1875 175.492188 297.1875 175.492188 297.1875 175.496094 C 297.1875 175.492188 297.1875 175.488281 297.191406 175.484375 M 297.578125 174.785156 L 297.59375 175.347656 L 297.609375 175.914062 C 297.582031 175.605469 297.554688 175.300781 297.523438 174.992188 C 297.542969 174.925781 297.5625 174.855469 297.578125 174.785156 M 284.546875 176.640625 L 284.570312 176.726562 L 284.589844 176.808594 C 284.582031 176.804688 284.574219 176.796875 284.566406 176.792969 C 284.558594 176.742188 284.554688 176.691406 284.546875 176.640625 M 284.855469 176.9375 L 284.898438 176.996094 L 284.9375 177.054688 L 284.871094 177.003906 C 284.867188 176.980469 284.859375 176.957031 284.855469 176.9375 M 300.867188 173.847656 L 300.675781 174.214844 L 300.574219 175.160156 L 300.585938 175.613281 L 300.496094 175.890625 L 300.453125 176.285156 L 300.332031 177.152344 L 300.628906 176.265625 L 300.808594 176.0625 L 300.867188 173.847656 M 276.960938 172.800781 L 276.722656 174.390625 L 276.742188 175 L 277.285156 177.234375 L 277.0625 175.933594 L 276.859375 174.539062 L 276.960938 172.800781 M 284.199219 176.871094 L 284.304688 177 L 284.386719 177.253906 L 284.3125 177.203125 L 284.199219 176.871094 M 284.648438 177.429688 L 284.65625 177.4375 L 284.648438 177.433594 L 284.648438 177.429688 M 284.617188 177.179688 L 284.710938 177.265625 L 284.777344 177.523438 L 284.691406 177.464844 L 284.644531 177.394531 L 284.617188 177.179688 M 285.15625 177.671875 L 285.179688 177.691406 L 285.199219 177.710938 L 285.257812 177.851562 L 285.230469 177.835938 L 285.15625 177.671875 M 279.476562 177.851562 L 279.480469 177.855469 L 279.480469 177.859375 L 279.476562 177.851562 M 276.917969 176.691406 L 277.230469 177.394531 L 277.546875 178.097656 C 277.550781 178.097656 277.554688 178.101562 277.554688 178.105469 L 276.917969 176.691406 M 299.277344 176.53125 L 299.152344 176.839844 L 298.746094 177.699219 L 298.617188 178.128906 L 298.792969 178.175781 L 299.277344 176.53125 M 296.234375 177.636719 L 296.0625 178.027344 L 295.816406 178.464844 C 295.953125 178.1875 296.09375 177.914062 296.234375 177.636719 M 300.542969 174.015625 L 300.359375 176.234375 L 299.949219 177.3125 L 299.5 178.621094 L 299.679688 178.347656 L 300.496094 175.890625 L 300.574219 175.160156 L 300.542969 174.015625 M 279.542969 177.640625 L 279.839844 178.195312 L 280.132812 178.746094 C 280.070312 178.667969 280.011719 178.589844 279.949219 178.511719 L 279.542969 177.640625 M 284.699219 178.820312 L 285.199219 179.285156 L 285.105469 179.277344 L 284.816406 179.011719 L 284.699219 178.820312 M 284.558594 177.953125 L 284.625 177.984375 L 284.796875 178.511719 L 285.421875 179.304688 L 285.363281 179.300781 L 284.8125 178.710938 L 284.558594 177.953125 M 285.304688 179.105469 L 285.421875 179.21875 L 285.492188 179.3125 L 285.457031 179.308594 L 285.304688 179.105469 M 286.84375 179.308594 L 287.054688 179.417969 L 286.929688 179.4375 L 286.84375 179.308594 M 285.585938 179.441406 L 285.59375 179.441406 L 285.597656 179.445312 L 285.585938 179.441406 M 299.5 178.621094 L 299.367188 178.816406 L 299.234375 179.015625 C 299.210938 179.207031 299.1875 179.398438 299.164062 179.589844 C 299.277344 179.265625 299.386719 178.945312 299.5 178.621094 M 287.230469 179.566406 L 287.300781 179.648438 L 287.261719 179.648438 L 287.039062 179.601562 L 287.230469 179.566406 M 280.132812 179.304688 L 280.207031 179.398438 L 280.371094 179.753906 L 280.132812 179.304688 M 298.066406 178.238281 L 297.160156 179.785156 L 297.070312 179.832031 L 297.242188 179.488281 L 298.066406 178.238281 M 286.007812 180.039062 L 286.179688 180.199219 L 286.3125 180.371094 L 286.289062 180.363281 L 286.167969 180.253906 L 286.007812 180.039062 M 297.929688 180.390625 L 297.917969 180.410156 L 297.902344 180.429688 C 297.90625 180.425781 297.910156 180.425781 297.914062 180.421875 L 297.929688 180.390625 M 280.933594 180.367188 L 280.976562 180.394531 L 281.019531 180.425781 L 281.027344 180.4375 C 280.996094 180.414062 280.964844 180.390625 280.933594 180.367188 M 296.988281 180.800781 L 296.894531 180.90625 L 296.882812 180.914062 L 296.875 180.898438 L 296.988281 180.800781 M 299.054688 178.261719 L 297.929688 180.390625 L 298.6875 179.234375 L 298.359375 180.035156 L 297.914062 180.421875 L 297.707031 180.808594 L 297.582031 180.921875 L 297.902344 180.429688 L 297.785156 180.53125 L 299.054688 178.261719 M 296.054688 181.230469 L 295.960938 181.347656 C 295.960938 181.351562 295.957031 181.351562 295.957031 181.351562 L 296.054688 181.230469 M 282.3125 181.398438 L 282.472656 181.476562 L 282.496094 181.5 L 282.34375 181.421875 L 282.3125 181.398438 M 296.117188 181.550781 L 295.976562 181.691406 L 295.835938 181.828125 C 295.816406 181.835938 295.792969 181.84375 295.769531 181.851562 C 295.886719 181.75 296 181.652344 296.117188 181.550781 M 282.601562 181.828125 L 283.039062 182.101562 L 283.050781 182.113281 L 282.601562 181.828125 M 293.160156 182.246094 L 292.21875 182.742188 L 292.570312 182.535156 L 293.160156 182.246094 M 297.429688 180.296875 L 297.164062 180.597656 L 297.273438 180.40625 L 296.832031 180.828125 L 296.75 180.679688 L 296.722656 180.703125 L 296.710938 180.855469 L 296.3125 181.324219 L 295.753906 181.855469 L 295.472656 181.949219 L 295.425781 182.011719 L 295.46875 181.949219 L 295.273438 182.015625 L 294.867188 182.285156 L 294.207031 182.8125 L 295.140625 182.394531 L 295.660156 181.945312 L 295.511719 182.085938 L 296.613281 181.226562 L 296.164062 181.738281 L 296.4375 181.554688 L 296.03125 182.039062 L 296.945312 180.96875 L 297.09375 180.855469 L 297.460938 180.382812 L 297.429688 180.296875 M 301.074219 177.601562 L 299.976562 180.058594 L 299.425781 180.953125 L 299.386719 181.441406 L 297.988281 182.890625 L 298.375 182.703125 L 299.890625 181.019531 L 300.742188 179.707031 L 300.371094 180.097656 L 301.074219 177.601562 M 293.816406 182.617188 L 293.75 182.679688 L 293.316406 182.898438 L 293.21875 182.902344 L 293.816406 182.617188 M 278.894531 181.71875 L 278.957031 181.929688 L 279.019531 182.136719 L 280.019531 183.027344 C 279.996094 182.96875 279.96875 182.910156 279.945312 182.851562 C 279.597656 182.472656 279.246094 182.097656 278.894531 181.71875 M 291.351562 182.964844 L 291.679688 183.054688 L 291.476562 183.136719 L 291.3125 183.097656 L 291.113281 183.097656 L 291.035156 183.074219 L 291.351562 182.964844 M 284.195312 183.367188 L 284.199219 183.371094 L 284.207031 183.371094 L 284.195312 183.367188 M 292.523438 183.296875 L 292.097656 183.507812 L 291.628906 183.5 L 291.789062 183.445312 L 292.523438 183.296875 M 290.472656 183.355469 L 290.816406 183.398438 L 290.347656 183.511719 L 289.882812 183.480469 L 290.179688 183.375 L 290.472656 183.355469 M 297.824219 182.109375 L 297.675781 182.183594 L 297.523438 182.257812 L 295.847656 183.8125 C 296.507812 183.242188 297.164062 182.675781 297.824219 182.109375 M 301.039062 180.128906 L 300.492188 180.863281 L 299.949219 181.597656 L 297.777344 183.820312 L 299.515625 182.292969 L 301.039062 180.128906 M 290.542969 183.875 L 290.550781 183.875 C 290.546875 183.875 290.539062 183.875 290.535156 183.875 L 290.535156 183.878906 L 290.542969 183.875 M 297.777344 183.820312 L 297.730469 183.863281 L 297.683594 183.902344 C 297.691406 183.898438 297.703125 183.890625 297.714844 183.886719 C 297.734375 183.863281 297.753906 183.84375 297.777344 183.820312 M 277.554688 178.105469 L 278.082031 179.269531 L 279.902344 181.65625 L 281.320312 182.984375 L 282.566406 183.796875 L 283.089844 183.957031 L 282.183594 183.339844 L 281.414062 182.628906 L 280.699219 182.191406 L 278.679688 179.839844 L 277.644531 178.195312 L 277.554688 178.105469 M 284.082031 183.230469 L 284.207031 183.371094 L 284.714844 183.59375 L 284.699219 183.589844 L 284.207031 183.371094 L 284.210938 183.378906 L 284.542969 183.542969 L 284.292969 183.472656 L 284.371094 183.5625 L 285.515625 184.003906 L 285.683594 184.027344 L 285.332031 183.871094 L 285.34375 183.867188 L 285.710938 184.03125 L 285.808594 184.042969 L 285.464844 183.855469 L 285.5625 183.84375 L 285.304688 183.765625 L 285.0625 183.636719 L 284.082031 183.230469 M 287.050781 184.210938 L 287.066406 184.214844 L 287.039062 184.210938 C 287.042969 184.210938 287.046875 184.210938 287.050781 184.210938 M 287.074219 184.207031 L 288.988281 184.265625 L 289.109375 184.28125 L 287.917969 184.332031 L 287.175781 184.230469 L 287.066406 184.210938 L 287.074219 184.207031 M 281.972656 182.148438 L 283.980469 183.378906 L 284.292969 183.472656 L 284.210938 183.378906 L 283.125 182.835938 L 284.082031 183.230469 L 283.863281 182.976562 L 285.0625 183.636719 L 285.5625 183.84375 L 286.648438 184.15625 L 285.808594 184.042969 L 286.074219 184.1875 L 285.710938 184.03125 L 285.683594 184.027344 L 286.402344 184.34375 L 285.515625 184.003906 L 285.058594 183.941406 L 282.925781 182.871094 L 281.972656 182.148438 M 294.570312 183.785156 L 293.523438 184.265625 L 293.472656 184.367188 L 292.605469 184.503906 L 292.886719 184.3125 L 293.550781 184.117188 L 293.6875 184.035156 L 294.570312 183.785156 M 295.886719 184.234375 L 295.226562 184.503906 L 294.570312 184.777344 L 294.996094 184.65625 C 295.292969 184.515625 295.589844 184.375 295.886719 184.234375 M 286.625 184.429688 L 289.527344 184.992188 L 290.386719 185.117188 L 289.726562 185.207031 L 287.429688 184.738281 L 286.625 184.429688 M 297.683594 183.902344 L 296.5 184.582031 L 295.320312 185.261719 L 297.074219 184.441406 L 297.683594 183.902344 M 287.6875 162.398438 L 285.929688 163.085938 C 285.878906 163.03125 285.144531 163.300781 283.726562 163.898438 L 283.023438 164.398438 L 283.648438 164.117188 C 282.628906 164.683594 281.996094 165.082031 281.757812 165.308594 L 279.882812 167.296875 L 281.101562 165.828125 L 280.445312 166.464844 L 280.832031 165.992188 L 280.519531 166.089844 L 282.128906 164.738281 L 281.675781 165.203125 L 282.296875 164.726562 C 282.488281 164.707031 282.886719 164.460938 283.488281 163.992188 L 282.945312 164.210938 L 283.171875 163.894531 L 281.996094 164.667969 L 280.191406 166.359375 L 278.78125 168.316406 L 277.5625 171.34375 L 278.382812 168.824219 L 278.246094 168.800781 L 277.898438 169.492188 L 277.371094 171.421875 L 277.019531 173.867188 L 277.285156 176.484375 L 278.382812 178.871094 L 279.890625 181.046875 L 281.804688 182.832031 L 284.085938 184.214844 L 286.621094 185.03125 L 289.203125 185.261719 C 288.421875 185.308594 287.503906 185.296875 286.445312 185.226562 L 289.234375 185.417969 L 291.582031 185.226562 L 291.992188 185.019531 L 295.242188 183.953125 L 297.523438 182.257812 L 299.320312 180.59375 L 300.253906 178.648438 L 298.113281 181.273438 L 296.207031 182.992188 L 295.699219 183.085938 L 297.121094 182.097656 L 298.140625 181.121094 C 298.25 180.875 298.265625 180.753906 298.1875 180.757812 L 297.914062 180.992188 L 299.234375 179.015625 L 300.078125 176.753906 L 300.320312 175.65625 L 300.203125 175.742188 L 300.238281 175.339844 L 300.132812 175.671875 L 300.300781 174.582031 L 300.34375 174.097656 L 300.351562 174.269531 L 300.441406 173.679688 C 300.371094 173.265625 300.347656 172.5625 300.367188 171.574219 L 300.515625 172.941406 L 300.480469 171.699219 L 300.332031 171.234375 L 300.335938 171.277344 L 299.523438 168.933594 L 299.566406 169.164062 L 299.339844 168.671875 L 298.332031 167.304688 L 299.035156 168.976562 L 299.203125 169.160156 L 299.566406 170.597656 L 300.238281 172.078125 L 300.273438 172.570312 L 300.097656 172.933594 L 299.976562 174.445312 C 300.003906 173.636719 299.921875 173.039062 299.738281 172.652344 L 299.785156 173.476562 L 299.449219 175.949219 L 299.277344 176.53125 L 299.730469 175.410156 L 298.933594 177.910156 L 299.121094 177.625 L 299.960938 174.640625 L 299.929688 175.058594 L 299.199219 177.648438 L 297.894531 180.1875 L 298.21875 179.414062 L 297.460938 180.382812 L 297.515625 180.535156 L 297.09375 180.855469 L 296.445312 181.683594 C 296.078125 182.035156 295.878906 182.179688 295.84375 182.109375 L 296.164062 181.738281 L 294.414062 182.9375 L 293.71875 183.144531 L 295.390625 181.867188 C 295.515625 181.824219 295.613281 181.757812 295.683594 181.667969 L 295.472656 181.949219 L 295.753906 181.601562 L 296.722656 180.703125 L 296.730469 180.640625 L 296.75 180.679688 L 297.539062 179.949219 L 297.273438 180.40625 C 297.332031 180.40625 297.480469 180.257812 297.722656 179.960938 L 298.570312 178.164062 L 298.328125 178.582031 C 298.542969 178.378906 298.886719 177.402344 299.359375 175.65625 L 299.578125 174.257812 L 299.605469 172.15625 L 299.25 170.832031 C 299.394531 171.0625 299.515625 171.324219 299.621094 171.613281 L 299.636719 171.308594 L 298.730469 169.015625 L 298.304688 168.621094 L 297.269531 167.199219 L 297.464844 167.953125 L 297.265625 167.613281 C 297.242188 167.585938 297.261719 167.601562 297.3125 167.660156 C 297.273438 167.628906 297.179688 167.433594 297.039062 167.074219 C 296.679688 166.820312 296.277344 166.375 295.828125 165.742188 L 294.535156 164.730469 L 294.59375 164.675781 L 293.378906 163.988281 L 293.289062 164.101562 L 292.796875 164 L 290.417969 163.339844 L 290.238281 163.238281 L 289.539062 163.148438 L 288.046875 163.351562 L 289.222656 163.105469 L 288.328125 162.992188 L 289.335938 162.851562 C 289.96875 163.054688 290.304688 163.113281 290.339844 163.03125 L 289.410156 162.84375 L 289.742188 162.796875 L 292.878906 163.523438 L 295.800781 165.160156 L 296.53125 165.835938 L 296.464844 165.566406 L 297.523438 166.800781 L 296.9375 165.933594 L 297.21875 166.191406 C 297.570312 166.867188 298.019531 167.546875 298.566406 168.226562 L 299.113281 169.523438 L 299.023438 169.097656 L 298.742188 168.308594 L 297.363281 166.089844 L 297.878906 166.6875 L 297.042969 165.582031 C 296.839844 165.492188 296.835938 165.535156 297.027344 165.703125 L 296.160156 165.027344 L 297.078125 165.890625 L 296.734375 165.65625 L 295.722656 164.816406 L 295.875 164.800781 L 294.792969 163.949219 L 291.648438 162.589844 L 287.6875 162.398438 M 294.570312 184.777344 L 292.132812 185.46875 L 291.269531 185.707031 L 291.261719 185.769531 L 293.410156 185.457031 L 292.882812 185.46875 L 294.570312 184.777344 M 285.421875 184.992188 L 285.359375 185.101562 L 287.960938 185.875 L 288.226562 185.824219 L 285.421875 184.992188 M 286.324219 161.683594 L 285.289062 161.78125 L 283.171875 162.695312 L 280.871094 164.117188 L 280.34375 164.324219 L 278.476562 166.457031 L 279.183594 165.433594 C 278.382812 166.335938 277.832031 167.039062 277.53125 167.542969 L 276.683594 169.695312 L 275.914062 172.671875 L 275.777344 175.765625 L 276.199219 176.949219 L 276.285156 176.816406 L 276.171875 176.058594 L 276.851562 177.890625 L 277.996094 179.917969 L 279.597656 182.121094 C 278.164062 180.320312 277.351562 179.238281 277.164062 178.878906 L 278.71875 181.214844 L 280.4375 183.023438 C 281.132812 183.464844 281.835938 183.949219 282.546875 184.476562 L 284.558594 185.34375 L 287.078125 186.027344 L 287.59375 186.070312 L 286.042969 185.691406 L 283.335938 184.742188 L 280.816406 183.09375 L 278.875 181.089844 L 278.628906 180.691406 L 280.667969 182.84375 L 282.753906 184.238281 L 281.136719 183.097656 L 279.175781 181.234375 L 278.128906 179.722656 L 276.808594 177.242188 L 276.339844 174.097656 L 276.714844 171.917969 L 277.171875 170.121094 L 278.527344 167.226562 L 279.042969 166.605469 L 277.582031 169.25 L 276.949219 171.105469 L 277.769531 169.40625 L 277.597656 169.53125 L 278.695312 167.257812 L 280.859375 164.746094 L 282.855469 163.585938 L 285.292969 162.46875 L 283.082031 163.300781 L 285.117188 162.441406 L 287.484375 161.964844 L 289.960938 162.109375 L 290.070312 162.035156 L 291.34375 162.316406 L 290.167969 161.917969 L 287.839844 161.753906 C 285.992188 161.945312 284.933594 162.09375 284.667969 162.199219 L 286.324219 161.683594 M 293.8125 186.054688 L 293.535156 186.097656 L 290.546875 186.496094 L 287.851562 186.628906 L 291.105469 186.558594 L 292.953125 186.238281 L 293.722656 186.140625 L 293.8125 186.054688 M 292.574219 186.683594 L 289.503906 186.988281 L 291.007812 186.933594 L 291.613281 186.902344 L 292.574219 186.683594 M 289.503906 186.988281 L 289.449219 186.992188 L 289.398438 186.992188 L 289.4375 186.996094 C 289.460938 186.992188 289.480469 186.992188 289.503906 186.988281 M 285.089844 186.613281 L 288.027344 187.039062 L 289.398438 186.992188 L 286.574219 186.804688 L 285.089844 186.613281 " fill-opacity="1" fill-rule="nonzero"/></g><g clip-path="url(#c896e2f5ae)"><path fill="#790016" d="M 288.511719 189.203125 C 280.261719 189.203125 273.546875 182.488281 273.546875 174.238281 C 273.546875 165.984375 280.261719 159.273438 288.511719 159.273438 C 296.765625 159.273438 303.476562 165.984375 303.476562 174.238281 C 303.476562 182.488281 296.765625 189.203125 288.511719 189.203125 Z M 288.511719 160.320312 C 280.835938 160.320312 274.59375 166.5625 274.59375 174.238281 C 274.59375 181.914062 280.835938 188.15625 288.511719 188.15625 C 296.1875 188.15625 302.429688 181.914062 302.429688 174.238281 C 302.429688 166.5625 296.1875 160.320312 288.511719 160.320312 Z M 288.511719 160.320312 " fill-opacity="1" fill-rule="nonzero"/></g><g clip-path="url(#0968c0c8ee)"><g clip-path="url(#a2b94f1d8f)"><g clip-path="url(#55cbbde460)"><path fill="#790016" d="M 302.425781 158.445312 C 302.070312 157.777344 301.480469 157.28125 300.757812 157.058594 C 299.269531 156.601562 297.683594 157.4375 297.222656 158.925781 L 293.222656 171.902344 L 284.03125 169.066406 C 283.730469 168.972656 283.421875 169.140625 283.328125 169.4375 L 282.660156 171.601562 C 282.21875 173.039062 282.355469 174.582031 283.066406 175.90625 C 283.773438 177.246094 284.957031 178.222656 286.394531 178.664062 C 289.382812 179.585938 292.554688 177.90625 293.476562 174.921875 L 294.144531 172.757812 L 298.304688 159.257812 C 298.582031 158.367188 299.53125 157.867188 300.421875 158.140625 C 300.851562 158.273438 301.214844 158.566406 301.417969 158.96875 C 301.632812 159.371094 301.671875 159.828125 301.542969 160.257812 L 301 162.015625 C 300.90625 162.3125 301.070312 162.625 301.367188 162.71875 C 301.667969 162.808594 301.976562 162.644531 302.070312 162.347656 L 302.613281 160.585938 C 302.855469 159.878906 302.78125 159.101562 302.425781 158.445312 Z M 292.390625 174.601562 C 291.652344 176.992188 289.117188 178.332031 286.726562 177.59375 C 285.574219 177.238281 284.628906 176.453125 284.058594 175.390625 C 283.492188 174.316406 283.371094 173.097656 283.726562 171.941406 L 284.226562 170.324219 L 292.875 172.992188 L 292.378906 174.597656 Z M 292.390625 174.601562 " fill-opacity="1" fill-rule="nonzero"/></g></g></g><g clip-path="url(#8bfed77064)"><g clip-path="url(#05e2ee5cab)"><g clip-path="url(#39c790a460)"><path fill="#790016" d="M 285.21875 175.894531 C 285.28125 175.949219 285.359375 175.988281 285.441406 176.015625 C 285.644531 176.078125 285.867188 176.027344 286.027344 175.855469 C 286.242188 175.621094 286.21875 175.265625 286 175.050781 C 284.773438 173.917969 285.511719 171.945312 285.519531 171.921875 C 285.632812 171.632812 285.488281 171.300781 285.199219 171.183594 C 284.910156 171.070312 284.578125 171.214844 284.460938 171.503906 C 284.421875 171.636719 283.425781 174.234375 285.21875 175.894531 Z M 285.21875 175.894531 " fill-opacity="1" fill-rule="nonzero"/></g></g></g></svg>